<svg width="505" height="96" viewBox="0 0 505 96" fill="none" xmlns="http://www.w3.org/2000/svg">
<path d="M110.04 91V78.616H111.96V80.632H112.056C112.2 80.312 112.36 80.016 112.536 79.744C112.728 79.456 112.952 79.208 113.208 79C113.48 78.792 113.792 78.632 114.144 78.52C114.496 78.392 114.912 78.328 115.392 78.328C116.208 78.328 116.96 78.528 117.648 78.928C118.336 79.312 118.848 79.952 119.184 80.848H119.232C119.456 80.176 119.872 79.592 120.48 79.096C121.104 78.584 121.944 78.328 123 78.328C124.264 78.328 125.248 78.744 125.952 79.576C126.672 80.392 127.032 81.552 127.032 83.056V91H125.112V83.392C125.112 82.288 124.896 81.456 124.464 80.896C124.032 80.336 123.344 80.056 122.4 80.056C122.016 80.056 121.648 80.104 121.296 80.2C120.96 80.296 120.656 80.44 120.384 80.632C120.112 80.824 119.896 81.072 119.736 81.376C119.576 81.664 119.496 82.008 119.496 82.408V91H117.576V83.392C117.576 82.288 117.36 81.456 116.928 80.896C116.496 80.336 115.824 80.056 114.912 80.056C114.528 80.056 114.16 80.104 113.808 80.2C113.456 80.296 113.144 80.44 112.872 80.632C112.6 80.824 112.376 81.072 112.2 81.376C112.04 81.664 111.96 82.008 111.96 82.408V91H110.04Z" fill="#333333"/>
<path d="M135.649 91.288C134.801 91.288 134.033 91.136 133.345 90.832C132.673 90.528 132.089 90.096 131.593 89.536C131.113 88.96 130.737 88.28 130.465 87.496C130.209 86.696 130.081 85.8 130.081 84.808C130.081 83.832 130.209 82.944 130.465 82.144C130.737 81.344 131.113 80.664 131.593 80.104C132.089 79.528 132.673 79.088 133.345 78.784C134.033 78.48 134.801 78.328 135.649 78.328C136.481 78.328 137.225 78.48 137.881 78.784C138.537 79.088 139.097 79.512 139.561 80.056C140.025 80.584 140.377 81.216 140.617 81.952C140.873 82.688 141.001 83.496 141.001 84.376V85.288H132.097V85.864C132.097 86.392 132.177 86.888 132.337 87.352C132.513 87.8 132.753 88.192 133.057 88.528C133.377 88.864 133.761 89.128 134.209 89.32C134.673 89.512 135.193 89.608 135.769 89.608C136.553 89.608 137.233 89.424 137.809 89.056C138.401 88.688 138.857 88.16 139.177 87.472L140.545 88.456C140.145 89.304 139.521 89.992 138.673 90.52C137.825 91.032 136.817 91.288 135.649 91.288ZM135.649 79.936C135.121 79.936 134.641 80.032 134.209 80.224C133.777 80.4 133.401 80.656 133.081 80.992C132.777 81.328 132.537 81.728 132.361 82.192C132.185 82.64 132.097 83.136 132.097 83.68V83.848H138.937V83.584C138.937 82.48 138.633 81.6 138.025 80.944C137.433 80.272 136.641 79.936 135.649 79.936ZM135.841 76.96L134.593 76.384L136.633 72.304L138.385 73.144L135.841 76.96Z" fill="#333333"/>
<path d="M152.085 88.984H151.989C151.237 90.52 150.029 91.288 148.365 91.288C147.597 91.288 146.901 91.136 146.277 90.832C145.653 90.528 145.117 90.096 144.669 89.536C144.237 88.976 143.901 88.296 143.661 87.496C143.437 86.696 143.325 85.8 143.325 84.808C143.325 83.816 143.437 82.92 143.661 82.12C143.901 81.32 144.237 80.64 144.669 80.08C145.117 79.52 145.653 79.088 146.277 78.784C146.901 78.48 147.597 78.328 148.365 78.328C149.229 78.328 149.965 78.52 150.573 78.904C151.197 79.272 151.669 79.848 151.989 80.632H152.085V73.24H154.005V91H152.085V88.984ZM148.893 89.56C149.325 89.56 149.733 89.504 150.117 89.392C150.517 89.28 150.861 89.12 151.149 88.912C151.437 88.688 151.661 88.424 151.821 88.12C151.997 87.8 152.085 87.44 152.085 87.04V82.432C152.085 82.096 151.997 81.784 151.821 81.496C151.661 81.192 151.437 80.936 151.149 80.728C150.861 80.52 150.517 80.36 150.117 80.248C149.733 80.12 149.325 80.056 148.893 80.056C147.805 80.056 146.949 80.4 146.325 81.088C145.701 81.76 145.389 82.648 145.389 83.752V85.864C145.389 86.968 145.701 87.864 146.325 88.552C146.949 89.224 147.805 89.56 148.893 89.56Z" fill="#333333"/>
<path d="M159.047 75.712C158.631 75.712 158.327 75.616 158.135 75.424C157.959 75.216 157.871 74.952 157.871 74.632V74.32C157.871 74 157.959 73.744 158.135 73.552C158.327 73.344 158.631 73.24 159.047 73.24C159.463 73.24 159.759 73.344 159.935 73.552C160.127 73.744 160.223 74 160.223 74.32V74.632C160.223 74.952 160.127 75.216 159.935 75.424C159.759 75.616 159.463 75.712 159.047 75.712ZM158.087 78.616H160.007V91H158.087V78.616Z" fill="#333333"/>
<path d="M173.087 91C172.367 91 171.847 90.808 171.527 90.424C171.223 90.04 171.031 89.56 170.951 88.984H170.831C170.559 89.752 170.111 90.328 169.487 90.712C168.863 91.096 168.119 91.288 167.255 91.288C165.943 91.288 164.919 90.952 164.183 90.28C163.463 89.608 163.103 88.696 163.103 87.544C163.103 86.376 163.527 85.48 164.375 84.856C165.239 84.232 166.575 83.92 168.383 83.92H170.831V82.696C170.831 81.816 170.591 81.144 170.111 80.68C169.631 80.216 168.895 79.984 167.903 79.984C167.151 79.984 166.519 80.152 166.007 80.488C165.511 80.824 165.095 81.272 164.759 81.832L163.607 80.752C163.943 80.08 164.479 79.512 165.215 79.048C165.951 78.568 166.879 78.328 167.999 78.328C169.503 78.328 170.671 78.696 171.503 79.432C172.335 80.168 172.751 81.192 172.751 82.504V89.32H174.167V91H173.087ZM167.567 89.656C168.047 89.656 168.487 89.6 168.887 89.488C169.287 89.376 169.631 89.216 169.919 89.008C170.207 88.8 170.431 88.56 170.591 88.288C170.751 88.016 170.831 87.72 170.831 87.4V85.36H168.287C167.183 85.36 166.375 85.52 165.863 85.84C165.367 86.16 165.119 86.624 165.119 87.232V87.736C165.119 88.344 165.335 88.816 165.767 89.152C166.215 89.488 166.815 89.656 167.567 89.656Z" fill="#333333"/>
<path d="M186.299 91.288C185.147 91.288 184.179 91.072 183.395 90.64C182.627 90.192 181.963 89.6 181.403 88.864L182.771 87.76C183.251 88.368 183.787 88.84 184.379 89.176C184.971 89.496 185.659 89.656 186.443 89.656C187.259 89.656 187.891 89.48 188.339 89.128C188.803 88.776 189.035 88.28 189.035 87.64C189.035 87.16 188.875 86.752 188.555 86.416C188.251 86.064 187.691 85.824 186.875 85.696L185.891 85.552C185.315 85.472 184.787 85.352 184.307 85.192C183.827 85.016 183.403 84.792 183.035 84.52C182.683 84.232 182.403 83.88 182.195 83.464C182.003 83.048 181.907 82.552 181.907 81.976C181.907 81.368 182.019 80.84 182.243 80.392C182.467 79.928 182.771 79.544 183.155 79.24C183.555 78.936 184.027 78.712 184.571 78.568C185.115 78.408 185.699 78.328 186.323 78.328C187.331 78.328 188.171 78.504 188.843 78.856C189.531 79.208 190.131 79.696 190.643 80.32L189.371 81.472C189.099 81.088 188.699 80.744 188.171 80.44C187.643 80.12 186.979 79.96 186.179 79.96C185.379 79.96 184.771 80.136 184.355 80.488C183.955 80.824 183.755 81.288 183.755 81.88C183.755 82.488 183.955 82.928 184.355 83.2C184.771 83.472 185.363 83.672 186.131 83.8L187.091 83.944C188.467 84.152 189.443 84.552 190.019 85.144C190.595 85.72 190.883 86.48 190.883 87.424C190.883 88.624 190.475 89.568 189.659 90.256C188.843 90.944 187.723 91.288 186.299 91.288Z" fill="#333333"/>
<path d="M195.234 75.712C194.818 75.712 194.514 75.616 194.322 75.424C194.146 75.216 194.058 74.952 194.058 74.632V74.32C194.058 74 194.146 73.744 194.322 73.552C194.514 73.344 194.818 73.24 195.234 73.24C195.65 73.24 195.946 73.344 196.122 73.552C196.314 73.744 196.41 74 196.41 74.32V74.632C196.41 74.952 196.314 75.216 196.122 75.424C195.946 75.616 195.65 75.712 195.234 75.712ZM194.274 78.616H196.194V91H194.274V78.616Z" fill="#333333"/>
<path d="M200.274 91V78.616H202.194V80.632H202.29C202.434 80.312 202.594 80.016 202.77 79.744C202.962 79.456 203.186 79.208 203.442 79C203.714 78.792 204.026 78.632 204.378 78.52C204.73 78.392 205.146 78.328 205.626 78.328C206.442 78.328 207.194 78.528 207.882 78.928C208.57 79.312 209.082 79.952 209.418 80.848H209.466C209.69 80.176 210.106 79.592 210.714 79.096C211.338 78.584 212.178 78.328 213.234 78.328C214.498 78.328 215.482 78.744 216.186 79.576C216.906 80.392 217.266 81.552 217.266 83.056V91H215.346V83.392C215.346 82.288 215.13 81.456 214.698 80.896C214.266 80.336 213.578 80.056 212.634 80.056C212.25 80.056 211.882 80.104 211.53 80.2C211.194 80.296 210.89 80.44 210.618 80.632C210.346 80.824 210.13 81.072 209.97 81.376C209.81 81.664 209.73 82.008 209.73 82.408V91H207.81V83.392C207.81 82.288 207.594 81.456 207.162 80.896C206.73 80.336 206.058 80.056 205.146 80.056C204.762 80.056 204.394 80.104 204.042 80.2C203.69 80.296 203.378 80.44 203.106 80.632C202.834 80.824 202.61 81.072 202.434 81.376C202.274 81.664 202.194 82.008 202.194 82.408V91H200.274Z" fill="#333333"/>
<path d="M221.227 78.616H223.147V80.632H223.243C223.563 79.848 224.027 79.272 224.635 78.904C225.259 78.52 226.003 78.328 226.867 78.328C227.635 78.328 228.331 78.48 228.955 78.784C229.579 79.088 230.107 79.52 230.539 80.08C230.987 80.64 231.323 81.32 231.547 82.12C231.787 82.92 231.907 83.816 231.907 84.808C231.907 85.8 231.787 86.696 231.547 87.496C231.323 88.296 230.987 88.976 230.539 89.536C230.107 90.096 229.579 90.528 228.955 90.832C228.331 91.136 227.635 91.288 226.867 91.288C225.187 91.288 223.979 90.52 223.243 88.984H223.147V95.8H221.227V78.616ZM226.339 89.56C227.427 89.56 228.283 89.224 228.907 88.552C229.531 87.864 229.843 86.968 229.843 85.864V83.752C229.843 82.648 229.531 81.76 228.907 81.088C228.283 80.4 227.427 80.056 226.339 80.056C225.907 80.056 225.491 80.12 225.091 80.248C224.707 80.36 224.371 80.52 224.083 80.728C223.795 80.936 223.563 81.192 223.387 81.496C223.227 81.784 223.147 82.096 223.147 82.432V87.04C223.147 87.44 223.227 87.8 223.387 88.12C223.563 88.424 223.795 88.688 224.083 88.912C224.371 89.12 224.707 89.28 225.091 89.392C225.491 89.504 225.907 89.56 226.339 89.56Z" fill="#333333"/>
<path d="M237.189 91C236.517 91 236.005 90.816 235.653 90.448C235.317 90.064 235.149 89.584 235.149 89.008V73.24H237.069V89.32H238.893V91H237.189Z" fill="#333333"/>
<path d="M246.344 91.288C245.496 91.288 244.728 91.136 244.04 90.832C243.368 90.528 242.784 90.096 242.288 89.536C241.808 88.96 241.432 88.28 241.16 87.496C240.904 86.696 240.776 85.8 240.776 84.808C240.776 83.832 240.904 82.944 241.16 82.144C241.432 81.344 241.808 80.664 242.288 80.104C242.784 79.528 243.368 79.088 244.04 78.784C244.728 78.48 245.496 78.328 246.344 78.328C247.176 78.328 247.92 78.48 248.576 78.784C249.232 79.088 249.792 79.512 250.256 80.056C250.72 80.584 251.072 81.216 251.312 81.952C251.568 82.688 251.696 83.496 251.696 84.376V85.288H242.792V85.864C242.792 86.392 242.872 86.888 243.032 87.352C243.208 87.8 243.448 88.192 243.752 88.528C244.072 88.864 244.456 89.128 244.904 89.32C245.368 89.512 245.888 89.608 246.464 89.608C247.248 89.608 247.928 89.424 248.504 89.056C249.096 88.688 249.552 88.16 249.872 87.472L251.24 88.456C250.84 89.304 250.216 89.992 249.368 90.52C248.52 91.032 247.512 91.288 246.344 91.288ZM246.344 79.936C245.816 79.936 245.336 80.032 244.904 80.224C244.472 80.4 244.096 80.656 243.776 80.992C243.472 81.328 243.232 81.728 243.056 82.192C242.88 82.64 242.792 83.136 242.792 83.68V83.848H249.632V83.584C249.632 82.48 249.328 81.6 248.72 80.944C248.128 80.272 247.336 79.936 246.344 79.936Z" fill="#333333"/>
<path d="M265.188 91.288C264.34 91.288 263.572 91.136 262.884 90.832C262.212 90.528 261.628 90.096 261.132 89.536C260.652 88.96 260.276 88.28 260.004 87.496C259.748 86.696 259.62 85.8 259.62 84.808C259.62 83.832 259.748 82.944 260.004 82.144C260.276 81.344 260.652 80.664 261.132 80.104C261.628 79.528 262.212 79.088 262.884 78.784C263.572 78.48 264.34 78.328 265.188 78.328C266.02 78.328 266.764 78.48 267.42 78.784C268.076 79.088 268.636 79.512 269.1 80.056C269.564 80.584 269.916 81.216 270.156 81.952C270.412 82.688 270.54 83.496 270.54 84.376V85.288H261.636V85.864C261.636 86.392 261.716 86.888 261.876 87.352C262.052 87.8 262.292 88.192 262.596 88.528C262.916 88.864 263.3 89.128 263.748 89.32C264.212 89.512 264.732 89.608 265.308 89.608C266.092 89.608 266.772 89.424 267.348 89.056C267.94 88.688 268.396 88.16 268.716 87.472L270.084 88.456C269.684 89.304 269.06 89.992 268.212 90.52C267.364 91.032 266.356 91.288 265.188 91.288ZM265.188 79.936C264.66 79.936 264.18 80.032 263.748 80.224C263.316 80.4 262.94 80.656 262.62 80.992C262.316 81.328 262.076 81.728 261.9 82.192C261.724 82.64 261.636 83.136 261.636 83.68V83.848H268.476V83.584C268.476 82.48 268.172 81.6 267.564 80.944C266.972 80.272 266.18 79.936 265.188 79.936Z" fill="#333333"/>
<path d="M279.376 78.616H281.296V80.632H281.392C281.712 79.848 282.176 79.272 282.784 78.904C283.408 78.52 284.152 78.328 285.016 78.328C285.784 78.328 286.48 78.48 287.104 78.784C287.728 79.088 288.256 79.52 288.688 80.08C289.136 80.64 289.472 81.32 289.696 82.12C289.936 82.92 290.056 83.816 290.056 84.808C290.056 85.8 289.936 86.696 289.696 87.496C289.472 88.296 289.136 88.976 288.688 89.536C288.256 90.096 287.728 90.528 287.104 90.832C286.48 91.136 285.784 91.288 285.016 91.288C283.336 91.288 282.128 90.52 281.392 88.984H281.296V95.8H279.376V78.616ZM284.488 89.56C285.576 89.56 286.432 89.224 287.056 88.552C287.68 87.864 287.992 86.968 287.992 85.864V83.752C287.992 82.648 287.68 81.76 287.056 81.088C286.432 80.4 285.576 80.056 284.488 80.056C284.056 80.056 283.64 80.12 283.24 80.248C282.856 80.36 282.52 80.52 282.232 80.728C281.944 80.936 281.712 81.192 281.536 81.496C281.376 81.784 281.296 82.096 281.296 82.432V87.04C281.296 87.44 281.376 87.8 281.536 88.12C281.712 88.424 281.944 88.688 282.232 88.912C282.52 89.12 282.856 89.28 283.24 89.392C283.64 89.504 284.056 89.56 284.488 89.56Z" fill="#333333"/>
<path d="M297.978 91.288C297.146 91.288 296.386 91.136 295.698 90.832C295.01 90.528 294.418 90.096 293.922 89.536C293.442 88.96 293.066 88.28 292.794 87.496C292.522 86.696 292.386 85.8 292.386 84.808C292.386 83.832 292.522 82.944 292.794 82.144C293.066 81.344 293.442 80.664 293.922 80.104C294.418 79.528 295.01 79.088 295.698 78.784C296.386 78.48 297.146 78.328 297.978 78.328C298.81 78.328 299.562 78.48 300.234 78.784C300.922 79.088 301.514 79.528 302.01 80.104C302.506 80.664 302.89 81.344 303.162 82.144C303.434 82.944 303.57 83.832 303.57 84.808C303.57 85.8 303.434 86.696 303.162 87.496C302.89 88.28 302.506 88.96 302.01 89.536C301.514 90.096 300.922 90.528 300.234 90.832C299.562 91.136 298.81 91.288 297.978 91.288ZM297.978 89.584C299.018 89.584 299.866 89.264 300.522 88.624C301.178 87.984 301.506 87.008 301.506 85.696V83.92C301.506 82.608 301.178 81.632 300.522 80.992C299.866 80.352 299.018 80.032 297.978 80.032C296.938 80.032 296.09 80.352 295.434 80.992C294.778 81.632 294.45 82.608 294.45 83.92V85.696C294.45 87.008 294.778 87.984 295.434 88.624C296.09 89.264 296.938 89.584 297.978 89.584Z" fill="#333333"/>
<path d="M306.727 91V78.616H308.647V80.632H308.743C309.047 79.928 309.471 79.368 310.015 78.952C310.575 78.536 311.319 78.328 312.247 78.328C313.527 78.328 314.535 78.744 315.271 79.576C316.023 80.392 316.399 81.552 316.399 83.056V91H314.479V83.392C314.479 81.168 313.543 80.056 311.671 80.056C311.287 80.056 310.911 80.104 310.543 80.2C310.191 80.296 309.871 80.44 309.583 80.632C309.295 80.824 309.063 81.072 308.887 81.376C308.727 81.664 308.647 82.008 308.647 82.408V91H306.727Z" fill="#333333"/>
<path d="M328.288 88.984H328.192C327.44 90.52 326.232 91.288 324.568 91.288C323.8 91.288 323.104 91.136 322.48 90.832C321.856 90.528 321.32 90.096 320.872 89.536C320.44 88.976 320.104 88.296 319.864 87.496C319.64 86.696 319.528 85.8 319.528 84.808C319.528 83.816 319.64 82.92 319.864 82.12C320.104 81.32 320.44 80.64 320.872 80.08C321.32 79.52 321.856 79.088 322.48 78.784C323.104 78.48 323.8 78.328 324.568 78.328C325.432 78.328 326.168 78.52 326.776 78.904C327.4 79.272 327.872 79.848 328.192 80.632H328.288V73.24H330.208V91H328.288V88.984ZM325.096 89.56C325.528 89.56 325.936 89.504 326.32 89.392C326.72 89.28 327.064 89.12 327.352 88.912C327.64 88.688 327.864 88.424 328.024 88.12C328.2 87.8 328.288 87.44 328.288 87.04V82.432C328.288 82.096 328.2 81.784 328.024 81.496C327.864 81.192 327.64 80.936 327.352 80.728C327.064 80.52 326.72 80.36 326.32 80.248C325.936 80.12 325.528 80.056 325.096 80.056C324.008 80.056 323.152 80.4 322.528 81.088C321.904 81.76 321.592 82.648 321.592 83.752V85.864C321.592 86.968 321.904 87.864 322.528 88.552C323.152 89.224 324.008 89.56 325.096 89.56Z" fill="#333333"/>
<path d="M338.946 91.288C338.098 91.288 337.33 91.136 336.642 90.832C335.97 90.528 335.386 90.096 334.89 89.536C334.41 88.96 334.034 88.28 333.762 87.496C333.506 86.696 333.378 85.8 333.378 84.808C333.378 83.832 333.506 82.944 333.762 82.144C334.034 81.344 334.41 80.664 334.89 80.104C335.386 79.528 335.97 79.088 336.642 78.784C337.33 78.48 338.098 78.328 338.946 78.328C339.778 78.328 340.522 78.48 341.178 78.784C341.834 79.088 342.394 79.512 342.858 80.056C343.322 80.584 343.674 81.216 343.914 81.952C344.17 82.688 344.298 83.496 344.298 84.376V85.288H335.394V85.864C335.394 86.392 335.474 86.888 335.634 87.352C335.81 87.8 336.05 88.192 336.354 88.528C336.674 88.864 337.058 89.128 337.506 89.32C337.97 89.512 338.49 89.608 339.066 89.608C339.85 89.608 340.53 89.424 341.106 89.056C341.698 88.688 342.154 88.16 342.474 87.472L343.842 88.456C343.442 89.304 342.818 89.992 341.97 90.52C341.122 91.032 340.114 91.288 338.946 91.288ZM338.946 79.936C338.418 79.936 337.938 80.032 337.506 80.224C337.074 80.4 336.698 80.656 336.378 80.992C336.074 81.328 335.834 81.728 335.658 82.192C335.482 82.64 335.394 83.136 335.394 83.68V83.848H342.234V83.584C342.234 82.48 341.93 81.6 341.322 80.944C340.73 80.272 339.938 79.936 338.946 79.936Z" fill="#333333"/>
<path d="M347.462 91V78.616H349.382V80.896H349.502C349.726 80.304 350.126 79.776 350.702 79.312C351.278 78.848 352.07 78.616 353.078 78.616H353.822V80.536H352.694C351.654 80.536 350.838 80.736 350.246 81.136C349.67 81.52 349.382 82.008 349.382 82.6V91H347.462Z" fill="#333333"/>
<path d="M365.181 91C364.461 91 363.941 90.808 363.621 90.424C363.317 90.04 363.125 89.56 363.045 88.984H362.925C362.653 89.752 362.205 90.328 361.581 90.712C360.957 91.096 360.213 91.288 359.349 91.288C358.037 91.288 357.013 90.952 356.277 90.28C355.557 89.608 355.197 88.696 355.197 87.544C355.197 86.376 355.621 85.48 356.469 84.856C357.333 84.232 358.669 83.92 360.477 83.92H362.925V82.696C362.925 81.816 362.685 81.144 362.205 80.68C361.725 80.216 360.989 79.984 359.997 79.984C359.245 79.984 358.613 80.152 358.101 80.488C357.605 80.824 357.189 81.272 356.853 81.832L355.701 80.752C356.037 80.08 356.573 79.512 357.309 79.048C358.045 78.568 358.973 78.328 360.093 78.328C361.597 78.328 362.765 78.696 363.597 79.432C364.429 80.168 364.845 81.192 364.845 82.504V89.32H366.261V91H365.181ZM359.661 89.656C360.141 89.656 360.581 89.6 360.981 89.488C361.381 89.376 361.725 89.216 362.013 89.008C362.301 88.8 362.525 88.56 362.685 88.288C362.845 88.016 362.925 87.72 362.925 87.4V85.36H360.381C359.277 85.36 358.469 85.52 357.957 85.84C357.461 86.16 357.213 86.624 357.213 87.232V87.736C357.213 88.344 357.429 88.816 357.861 89.152C358.309 89.488 358.909 89.656 359.661 89.656Z" fill="#333333"/>
<path d="M376.921 88.984H376.825C376.073 90.52 374.865 91.288 373.201 91.288C372.433 91.288 371.737 91.136 371.113 90.832C370.489 90.528 369.953 90.096 369.505 89.536C369.073 88.976 368.737 88.296 368.497 87.496C368.273 86.696 368.161 85.8 368.161 84.808C368.161 83.816 368.273 82.92 368.497 82.12C368.737 81.32 369.073 80.64 369.505 80.08C369.953 79.52 370.489 79.088 371.113 78.784C371.737 78.48 372.433 78.328 373.201 78.328C374.065 78.328 374.801 78.52 375.409 78.904C376.033 79.272 376.505 79.848 376.825 80.632H376.921V73.24H378.841V91H376.921V88.984ZM373.729 89.56C374.161 89.56 374.569 89.504 374.953 89.392C375.353 89.28 375.697 89.12 375.985 88.912C376.273 88.688 376.497 88.424 376.657 88.12C376.833 87.8 376.921 87.44 376.921 87.04V82.432C376.921 82.096 376.833 81.784 376.657 81.496C376.497 81.192 376.273 80.936 375.985 80.728C375.697 80.52 375.353 80.36 374.953 80.248C374.569 80.12 374.161 80.056 373.729 80.056C372.641 80.056 371.785 80.4 371.161 81.088C370.537 81.76 370.225 82.648 370.225 83.752V85.864C370.225 86.968 370.537 87.864 371.161 88.552C371.785 89.224 372.641 89.56 373.729 89.56Z" fill="#333333"/>
<path d="M391.923 91C391.203 91 390.683 90.808 390.363 90.424C390.059 90.04 389.867 89.56 389.787 88.984H389.667C389.395 89.752 388.947 90.328 388.323 90.712C387.699 91.096 386.955 91.288 386.091 91.288C384.779 91.288 383.755 90.952 383.019 90.28C382.299 89.608 381.939 88.696 381.939 87.544C381.939 86.376 382.363 85.48 383.211 84.856C384.075 84.232 385.411 83.92 387.219 83.92H389.667V82.696C389.667 81.816 389.427 81.144 388.947 80.68C388.467 80.216 387.731 79.984 386.739 79.984C385.987 79.984 385.355 80.152 384.843 80.488C384.347 80.824 383.931 81.272 383.595 81.832L382.443 80.752C382.779 80.08 383.315 79.512 384.051 79.048C384.787 78.568 385.715 78.328 386.835 78.328C388.339 78.328 389.507 78.696 390.339 79.432C391.171 80.168 391.587 81.192 391.587 82.504V89.32H393.003V91H391.923ZM386.403 89.656C386.883 89.656 387.323 89.6 387.723 89.488C388.123 89.376 388.467 89.216 388.755 89.008C389.043 88.8 389.267 88.56 389.427 88.288C389.587 88.016 389.667 87.72 389.667 87.4V85.36H387.123C386.019 85.36 385.211 85.52 384.699 85.84C384.203 86.16 383.955 86.624 383.955 87.232V87.736C383.955 88.344 384.171 88.816 384.603 89.152C385.051 89.488 385.651 89.656 386.403 89.656Z" fill="#333333"/>
<path d="M18.6959 56.768C13.0212 56.768 8.60525 54.848 5.44791 51.008C2.29058 47.1253 0.711914 41.4293 0.711914 33.92C0.711914 26.4107 2.29058 20.6507 5.44791 16.64C8.60525 12.5867 13.0212 10.56 18.6959 10.56C22.4506 10.56 25.5866 11.4133 28.1039 13.12C30.6639 14.8267 32.6479 17.2373 34.0559 20.352L29.7039 22.976C28.8079 20.672 27.4426 18.8373 25.6079 17.472C23.7732 16.064 21.4692 15.36 18.6959 15.36C16.7759 15.36 15.0479 15.7227 13.5119 16.448C12.0186 17.1733 10.7386 18.2187 9.67192 19.584C8.64791 20.9067 7.85858 22.5067 7.30392 24.384C6.74925 26.2187 6.47191 28.288 6.47191 30.592V37.248C6.47191 41.856 7.53858 45.4613 9.67192 48.064C11.8052 50.6667 14.8132 51.968 18.6959 51.968C21.5546 51.968 23.9439 51.2427 25.8639 49.792C27.7839 48.2987 29.1919 46.336 30.0879 43.904L34.3759 46.592C32.9679 49.7493 30.9412 52.2453 28.2959 54.08C25.6506 55.872 22.4506 56.768 18.6959 56.768Z" fill="#333333"/>
<path d="M70.6699 56L66.1899 42.816H48.1419L43.6619 56H38.2219L53.8379 11.328H60.6859L76.3019 56H70.6699ZM57.2939 16.32H56.9739L49.4219 38.08H64.8459L57.2939 16.32Z" fill="#333333"/>
<path d="M83.7019 56V11.328H89.0779V51.264H108.086V56H83.7019Z" fill="#333333"/>
<path d="M129.571 56.768C123.896 56.768 119.48 54.848 116.323 51.008C113.166 47.1253 111.587 41.4293 111.587 33.92C111.587 26.4107 113.166 20.6507 116.323 16.64C119.48 12.5867 123.896 10.56 129.571 10.56C133.326 10.56 136.462 11.4133 138.979 13.12C141.539 14.8267 143.523 17.2373 144.931 20.352L140.579 22.976C139.683 20.672 138.318 18.8373 136.483 17.472C134.648 16.064 132.344 15.36 129.571 15.36C127.651 15.36 125.923 15.7227 124.387 16.448C122.894 17.1733 121.614 18.2187 120.547 19.584C119.523 20.9067 118.734 22.5067 118.179 24.384C117.624 26.2187 117.347 28.288 117.347 30.592V37.248C117.347 41.856 118.414 45.4613 120.547 48.064C122.68 50.6667 125.688 51.968 129.571 51.968C132.43 51.968 134.819 51.2427 136.739 49.792C138.659 48.2987 140.067 46.336 140.963 43.904L145.251 46.592C143.843 49.7493 141.816 52.2453 139.171 54.08C136.526 55.872 133.326 56.768 129.571 56.768Z" fill="#333333"/>
<path d="M158.633 11.328V38.976C158.633 43.2427 159.422 46.4853 161.001 48.704C162.58 50.88 165.353 51.968 169.321 51.968C173.289 51.968 176.062 50.88 177.641 48.704C179.22 46.4853 180.009 43.2427 180.009 38.976V11.328H185.385V37.696C185.385 40.9387 185.086 43.7547 184.489 46.144C183.934 48.5333 183.017 50.5173 181.737 52.096C180.457 53.6747 178.772 54.848 176.681 55.616C174.633 56.384 172.116 56.768 169.129 56.768C166.142 56.768 163.625 56.384 161.577 55.616C159.572 54.848 157.95 53.6747 156.713 52.096C155.476 50.5173 154.58 48.5333 154.025 46.144C153.513 43.7547 153.257 40.9387 153.257 37.696V11.328H158.633Z" fill="#333333"/>
<path d="M196.952 56V11.328H202.328V51.264H221.336V56H196.952Z" fill="#333333"/>
<path d="M258.17 56L253.69 42.816H235.642L231.162 56H225.722L241.338 11.328H248.186L263.802 56H258.17ZM244.794 16.32H244.474L236.922 38.08H252.346L244.794 16.32Z" fill="#333333"/>
<path d="M271.202 11.328H286.178C288.951 11.328 291.469 11.7973 293.73 12.736C295.991 13.6747 297.911 15.0827 299.49 16.96C301.111 18.7947 302.349 21.12 303.202 23.936C304.055 26.7093 304.482 29.952 304.482 33.664C304.482 37.376 304.055 40.64 303.202 43.456C302.349 46.2293 301.111 48.5547 299.49 50.432C297.911 52.2667 295.991 53.6533 293.73 54.592C291.469 55.5307 288.951 56 286.178 56H271.202V11.328ZM286.178 51.264C288.013 51.264 289.698 50.9653 291.234 50.368C292.77 49.728 294.093 48.8107 295.202 47.616C296.311 46.4213 297.165 44.9707 297.762 43.264C298.402 41.5147 298.722 39.5307 298.722 37.312V30.016C298.722 27.7973 298.402 25.8347 297.762 24.128C297.165 22.3787 296.311 20.9067 295.202 19.712C294.093 18.5173 292.77 17.6213 291.234 17.024C289.698 16.384 288.013 16.064 286.178 16.064H276.578V51.264H286.178Z" fill="#333333"/>
<path d="M330.843 56.768C327.942 56.768 325.318 56.2773 322.971 55.296C320.667 54.272 318.683 52.8 317.019 50.88C315.398 48.9173 314.139 46.5067 313.243 43.648C312.347 40.7467 311.899 37.4187 311.899 33.664C311.899 29.9093 312.347 26.6027 313.243 23.744C314.139 20.8853 315.398 18.4747 317.019 16.512C318.683 14.5493 320.667 13.0773 322.971 12.096C325.318 11.072 327.942 10.56 330.843 10.56C333.702 10.56 336.305 11.072 338.651 12.096C340.998 13.0773 342.982 14.5493 344.603 16.512C346.267 18.4747 347.547 20.8853 348.443 23.744C349.339 26.6027 349.787 29.9093 349.787 33.664C349.787 37.4187 349.339 40.7467 348.443 43.648C347.547 46.5067 346.267 48.9173 344.603 50.88C342.982 52.8 340.998 54.272 338.651 55.296C336.305 56.2773 333.702 56.768 330.843 56.768ZM330.843 51.968C332.763 51.968 334.534 51.6267 336.155 50.944C337.777 50.2613 339.163 49.28 340.315 48C341.51 46.72 342.427 45.184 343.067 43.392C343.707 41.6 344.027 39.5947 344.027 37.376V29.952C344.027 27.7333 343.707 25.728 343.067 23.936C342.427 22.144 341.51 20.608 340.315 19.328C339.163 18.048 337.777 17.0667 336.155 16.384C334.534 15.7013 332.763 15.36 330.843 15.36C328.923 15.36 327.153 15.7013 325.531 16.384C323.91 17.0667 322.502 18.048 321.307 19.328C320.155 20.608 319.259 22.144 318.619 23.936C317.979 25.728 317.659 27.7333 317.659 29.952V37.376C317.659 39.5947 317.979 41.6 318.619 43.392C319.259 45.184 320.155 46.72 321.307 48C322.502 49.28 323.91 50.2613 325.531 50.944C327.153 51.6267 328.923 51.968 330.843 51.968Z" fill="#333333"/>
<path d="M364.828 56H359.452V11.328H377.244C381.169 11.328 384.22 12.416 386.396 14.592C388.615 16.768 389.724 19.904 389.724 24C389.724 27.2853 388.956 29.9947 387.42 32.128C385.927 34.2187 383.708 35.6053 380.764 36.288L391.004 56H384.924L375.26 36.8H364.828V56ZM377.244 32.192C379.377 32.192 381.02 31.6373 382.172 30.528C383.367 29.4187 383.964 27.84 383.964 25.792V22.464C383.964 20.416 383.367 18.8373 382.172 17.728C381.02 16.6187 379.377 16.064 377.244 16.064H364.828V32.192H377.244Z" fill="#333333"/>
<path d="M428.357 56L423.877 42.816H405.829L401.349 56H395.909L411.525 11.328H418.373L433.989 56H428.357ZM414.981 16.32H414.661L407.109 38.08H422.533L414.981 16.32Z" fill="#333333"/>
<path d="M491.667 8H454.333C451.4 8 449 10.4 449 13.3333V50.6667C449 53.6 451.4 56 454.333 56H491.667C494.6 56 497 53.6 497 50.6667V13.3333C497 10.4 494.6 8 491.667 8ZM491.667 50.6667H454.333V13.3333H491.667V50.6667Z" fill="#808080"/>
<path d="M471 20.5867H457.667V24.5867H471V20.5867Z" fill="#333333"/>
<path d="M489 42H475.667V46H489V42Z" fill="#333333"/>
<path d="M489 35.3333H475.667V39.3333H489V35.3333Z" fill="#333333"/>
<path d="M462.333 48H466.333V42.6667H471.667V38.6667H466.333V33.3333H462.333V38.6667H457V42.6667H462.333V48Z" fill="#333333"/>
<path d="M478.573 29.2L482.333 25.44L486.093 29.2L488.92 26.3733L485.16 22.5867L488.92 18.8267L486.093 16L482.333 19.76L478.573 16L475.747 18.8267L479.507 22.5867L475.747 26.3733L478.573 29.2Z" fill="#333333"/>
</svg>
